<svg xmlns="http://www.w3.org/2000/svg" width="600" height="320" viewBox="0 0 600 320">
  <rect width="600" height="320" rx="12" fill="#0d1117"/>
  <rect width="600" height="320" rx="12" fill="none" stroke="#30363d" stroke-width="1.5"/>
  <rect x="0" y="0" width="600" height="3" fill="#3fb950"/>
  <rect x="24" y="22" width="120" height="22" rx="11" fill="#3fb950" opacity="0.15"/>
  <text x="84" y="37" font-family="monospace" font-size="11" fill="#3fb950" text-anchor="middle" font-weight="bold">RESURRECTED</text>
  <text x="576" y="37" font-family="monospace" font-size="11" fill="#8b949e" text-anchor="end">2026-07-09</text>
  <text x="24" y="75" font-family="Segoe UI,Arial,sans-serif" font-size="20" font-weight="700" fill="#e6edf3">Support for different themes based on Terminal colo…</text>
  <text x="24" y="100" font-family="monospace" font-size="13" fill="#58a6ff">sharkdp/bat</text>
  <text x="576" y="100" font-family="monospace" font-size="13" fill="#8b949e" text-anchor="end">38 👍</text>
  <line x1="24" y1="116" x2="576" y2="116" stroke="#30363d" stroke-width="1"/>
  <text x="24" y="140" font-family="Segoe UI,Arial,sans-serif" font-size="13" fill="#8b949e" font-style="italic">The emergence of robust libraries like termenv enables reliable cross-p…</text>
  <text x="24" y="165" font-family="monospace" font-size="12" fill="#8b949e">IMPACT</text>
  <text x="90" y="165" font-family="monospace" font-size="12" fill="#d29922" font-weight="bold">5/10</text>
  <rect x="24" y="175" width="320" height="10" rx="5" fill="#30363d"/><rect x="24" y="175" width="160" height="10" rx="5" fill="#d29922"/>
  <text x="24" y="212" font-family="monospace" font-size="12" fill="#8b949e">~80h effort</text>
  <text x="160" y="212" font-family="monospace" font-size="12" fill="#8b949e">abandoned 2024-11-13</text>
  <rect x="370" y="194" width="90" height="22" rx="11" fill="#3fb950" opacity="0.2"/><text x="415" y="209" font-family="monospace" font-size="11" fill="#3fb950" text-anchor="middle">PoC RUST</text>
  <rect x="24" y="230" width="41" height="20" rx="10" fill="#21262d" stroke="#30363d" stroke-width="1"/><text x="34" y="244" font-family="monospace" font-size="11" fill="#8b949e">bat</text><rect x="73" y="230" width="48" height="20" rx="10" fill="#21262d" stroke="#30363d" stroke-width="1"/><text x="83" y="244" font-family="monospace" font-size="11" fill="#8b949e">rust</text><rect x="129" y="230" width="76" height="20" rx="10" fill="#21262d" stroke="#30363d" stroke-width="1"/><text x="139" y="244" font-family="monospace" font-size="11" fill="#8b949e">terminal</text><rect x="213" y="230" width="55" height="20" rx="10" fill="#21262d" stroke="#30363d" stroke-width="1"/><text x="223" y="244" font-family="monospace" font-size="11" fill="#8b949e">theme</text>
  <line x1="24" y1="268" x2="576" y2="268" stroke="#30363d" stroke-width="1"/>
  <text x="24" y="288" font-family="monospace" font-size="11" fill="#8b949e">AI Idea Resurrection Lab</text>
  <text x="576" y="288" font-family="monospace" font-size="11" fill="#58a6ff" text-anchor="end">github.com/mohabdelkarim/ai-idea-resurrection-lab</text>
</svg>
