<svg xmlns="http://www.w3.org/2000/svg" width="600" height="320" viewBox="0 0 600 320">
  <rect width="600" height="320" rx="12" fill="#0d1117"/>
  <rect width="600" height="320" rx="12" fill="none" stroke="#30363d" stroke-width="1.5"/>
  <rect x="0" y="0" width="600" height="3" fill="#3fb950"/>
  <rect x="24" y="22" width="120" height="22" rx="11" fill="#3fb950" opacity="0.15"/>
  <text x="84" y="37" font-family="monospace" font-size="11" fill="#3fb950" text-anchor="middle" font-weight="bold">RESURRECTED</text>
  <text x="576" y="37" font-family="monospace" font-size="11" fill="#8b949e" text-anchor="end">2026-05-02</text>
  <text x="24" y="75" font-family="Segoe UI,Arial,sans-serif" font-size="20" font-weight="700" fill="#e6edf3">请勿在 Issues 页面无意义灌水，此类行为属于对 Issues 区的滥用。</text>
  <text x="24" y="100" font-family="monospace" font-size="13" fill="#58a6ff">denoland/deno</text>
  <text x="576" y="100" font-family="monospace" font-size="13" fill="#8b949e" text-anchor="end">144 👍</text>
  <line x1="24" y1="116" x2="576" y2="116" stroke="#30363d" stroke-width="1"/>
  <text x="24" y="140" font-family="Segoe UI,Arial,sans-serif" font-size="13" fill="#8b949e" font-style="italic">The proposed system will succeed now because it leverages recent advanc…</text>
  <text x="24" y="165" font-family="monospace" font-size="12" fill="#8b949e">IMPACT</text>
  <text x="90" y="165" font-family="monospace" font-size="12" fill="#3fb950" font-weight="bold">8/10</text>
  <rect x="24" y="175" width="320" height="10" rx="5" fill="#30363d"/><rect x="24" y="175" width="256" height="10" rx="5" fill="#3fb950"/>
  <text x="24" y="212" font-family="monospace" font-size="12" fill="#8b949e">~120h effort</text>
  <text x="160" y="212" font-family="monospace" font-size="12" fill="#8b949e">abandoned 2018-08-03</text>
  <rect x="370" y="194" width="90" height="22" rx="11" fill="#3fb950" opacity="0.2"/><text x="415" y="209" font-family="monospace" font-size="11" fill="#3fb950" text-anchor="middle">PoC TYPESCRIPT</text>
  <rect x="24" y="230" width="90" height="20" rx="10" fill="#21262d" stroke="#30363d" stroke-width="1"/><text x="34" y="244" font-family="monospace" font-size="11" fill="#8b949e">typescript</text><rect x="122" y="230" width="125" height="20" rx="10" fill="#21262d" stroke="#30363d" stroke-width="1"/><text x="132" y="244" font-family="monospace" font-size="11" fill="#8b949e">machinelearning</text><rect x="255" y="230" width="83" height="20" rx="10" fill="#21262d" stroke="#30363d" stroke-width="1"/><text x="265" y="244" font-family="monospace" font-size="11" fill="#8b949e">githubapi</text><rect x="346" y="230" width="202" height="20" rx="10" fill="#21262d" stroke="#30363d" stroke-width="1"/><text x="356" y="244" font-family="monospace" font-size="11" fill="#8b949e">natural languageprocessing</text>
  <line x1="24" y1="268" x2="576" y2="268" stroke="#30363d" stroke-width="1"/>
  <text x="24" y="288" font-family="monospace" font-size="11" fill="#8b949e">AI Idea Resurrection Lab</text>
  <text x="576" y="288" font-family="monospace" font-size="11" fill="#58a6ff" text-anchor="end">github.com/mohabdelkarim/ai-idea-resurrection-lab</text>
</svg>
